<svg xmlns="http://www.w3.org/2000/svg" width="600" height="400"><path d="M335,191L388,113L351,112Z" fill="rgb(112,112,112)" stroke="rgb(112,112,112)" stroke-width="1.51"/><path d="M335,191L438,194L388,113Z" fill="rgb(126,126,126)" stroke="rgb(126,126,126)" stroke-width="1.51"/><path d="M388,113L400,76L351,112Z" fill="rgb(104,104,104)" stroke="rgb(104,104,104)" stroke-width="1.51"/><path d="M498,150L400,76L388,113Z" fill="rgb(119,119,119)" stroke="rgb(119,119,119)" stroke-width="1.51"/><path d="M351,112L272,124L335,191Z" fill="rgb(105,105,105)" stroke="rgb(105,105,105)" stroke-width="1.51"/><path d="M317,52L272,124L351,112Z" fill="rgb(90,90,90)" stroke="rgb(90,90,90)" stroke-width="1.51"/><path d="M335,191L426,256L438,194Z" fill="rgb(145,145,145)" stroke="rgb(145,145,145)" stroke-width="1.51"/><path d="M400,76L317,52L351,112Z" fill="rgb(93,93,93)" stroke="rgb(93,93,93)" stroke-width="1.51"/><path d="M335,191L358,273L426,256Z" fill="rgb(147,147,147)" stroke="rgb(147,147,147)" stroke-width="1.51"/><path d="M260,257L358,273L335,191Z" fill="rgb(135,135,135)" stroke="rgb(135,135,135)" stroke-width="1.51"/><path d="M438,194L498,150L388,113Z" fill="rgb(134,134,134)" stroke="rgb(134,134,134)" stroke-width="1.51"/><path d="M510,175L498,150L438,194Z" fill="rgb(149,149,149)" stroke="rgb(149,149,149)" stroke-width="1.51"/><path d="M272,124L248,208L335,191Z" fill="rgb(108,108,108)" stroke="rgb(108,108,108)" stroke-width="1.51"/><path d="M317,52L290,38L272,124Z" fill="rgb(79,79,79)" stroke="rgb(79,79,79)" stroke-width="1.51"/><path d="M272,124L190,151L248,208Z" fill="rgb(94,94,94)" stroke="rgb(94,94,94)" stroke-width="1.51"/><path d="M340,-8L290,38L317,52Z" fill="rgb(70,70,70)" stroke="rgb(70,70,70)" stroke-width="1.51"/><path d="M497,277L510,175L438,194Z" fill="rgb(163,163,163)" stroke="rgb(163,163,163)" stroke-width="1.51"/><path d="M248,208L260,257L335,191Z" fill="rgb(121,121,121)" stroke="rgb(121,121,121)" stroke-width="1.51"/><path d="M556,73L486,55L498,150Z" fill="rgb(130,130,130)" stroke="rgb(130,130,130)" stroke-width="1.51"/><path d="M498,150L486,55L400,76Z" fill="rgb(120,120,120)" stroke="rgb(120,120,120)" stroke-width="1.51"/><path d="M400,76L340,-8L317,52Z" fill="rgb(80,80,80)" stroke="rgb(80,80,80)" stroke-width="1.51"/><path d="M430,-22L340,-8L400,76Z" fill="rgb(81,81,81)" stroke="rgb(81,81,81)" stroke-width="1.51"/><path d="M426,256L497,277L438,194Z" fill="rgb(166,166,166)" stroke="rgb(166,166,166)" stroke-width="1.51"/><path d="M468,360L497,277L426,256Z" fill="rgb(187,187,187)" stroke="rgb(187,187,187)" stroke-width="1.51"/><path d="M205,36L190,151L272,124Z" fill="rgb(74,74,74)" stroke="rgb(74,74,74)" stroke-width="1.51"/><path d="M248,208L182,252L260,257Z" fill="rgb(116,116,116)" stroke="rgb(116,116,116)" stroke-width="1.51"/><path d="M486,55L430,-22L400,76Z" fill="rgb(97,97,97)" stroke="rgb(97,97,97)" stroke-width="1.51"/><path d="M358,273L388,348L426,256Z" fill="rgb(168,168,168)" stroke="rgb(168,168,168)" stroke-width="1.51"/><path d="M260,257L359,346L358,273Z" fill="rgb(154,154,154)" stroke="rgb(154,154,154)" stroke-width="1.51"/><path d="M190,151L179,175L248,208Z" fill="rgb(93,93,93)" stroke="rgb(93,93,93)" stroke-width="1.51"/><path d="M359,346L388,348L358,273Z" fill="rgb(174,174,174)" stroke="rgb(174,174,174)" stroke-width="1.51"/><path d="M510,175L564,120L498,150Z" fill="rgb(150,150,150)" stroke="rgb(150,150,150)" stroke-width="1.51"/><path d="M486,55L503,-20L430,-22Z" fill="rgb(94,94,94)" stroke="rgb(94,94,94)" stroke-width="1.51"/><path d="M563,203L564,120L510,175Z" fill="rgb(161,161,161)" stroke="rgb(161,161,161)" stroke-width="1.51"/><path d="M497,277L563,203L510,175Z" fill="rgb(173,173,173)" stroke="rgb(173,173,173)" stroke-width="1.51"/><path d="M290,38L205,36L272,124Z" fill="rgb(70,70,70)" stroke="rgb(70,70,70)" stroke-width="1.51"/><path d="M190,151L135,101L179,175Z" fill="rgb(75,75,75)" stroke="rgb(75,75,75)" stroke-width="1.51"/><path d="M238,-3L205,36L290,38Z" fill="rgb(56,56,56)" stroke="rgb(56,56,56)" stroke-width="1.51"/><path d="M564,120L556,73L498,150Z" fill="rgb(142,142,142)" stroke="rgb(142,142,142)" stroke-width="1.51"/><path d="M190,-32L238,-3L260,-126Z" fill="rgb(46,46,46)" stroke="rgb(46,46,46)" stroke-width="1.51"/><path d="M340,-8L238,-3L290,38Z" fill="rgb(60,60,60)" stroke="rgb(60,60,60)" stroke-width="1.51"/><path d="M179,175L182,252L248,208Z" fill="rgb(103,103,103)" stroke="rgb(103,103,103)" stroke-width="1.51"/><path d="M260,257L255,361L359,346Z" fill="rgb(156,156,156)" stroke="rgb(156,156,156)" stroke-width="1.51"/><path d="M556,73L503,-20L486,55Z" fill="rgb(112,112,112)" stroke="rgb(112,112,112)" stroke-width="1.51"/><path d="M388,348L468,360L426,256Z" fill="rgb(186,186,186)" stroke="rgb(186,186,186)" stroke-width="1.51"/><path d="M583,289L615,195L563,203Z" fill="rgb(191,191,191)" stroke="rgb(191,191,191)" stroke-width="1.51"/><path d="M399,402L468,360L388,348Z" fill="rgb(201,201,201)" stroke="rgb(201,201,201)" stroke-width="1.51"/><path d="M182,252L255,361L260,257Z" fill="rgb(133,133,133)" stroke="rgb(133,133,133)" stroke-width="1.51"/><path d="M359,346L399,402L388,348Z" fill="rgb(191,191,191)" stroke="rgb(191,191,191)" stroke-width="1.51"/><path d="M112,35L135,101L205,36Z" fill="rgb(48,48,48)" stroke="rgb(48,48,48)" stroke-width="1.51"/><path d="M205,36L135,101L190,151Z" fill="rgb(63,63,63)" stroke="rgb(63,63,63)" stroke-width="1.51"/><path d="M179,175L107,256L182,252Z" fill="rgb(98,98,98)" stroke="rgb(98,98,98)" stroke-width="1.51"/><path d="M318,439L399,402L359,346Z" fill="rgb(197,197,197)" stroke="rgb(197,197,197)" stroke-width="1.51"/><path d="M564,120L618,55L556,73Z" fill="rgb(141,141,141)" stroke="rgb(141,141,141)" stroke-width="1.51"/><path d="M563,203L615,195L564,120Z" fill="rgb(171,171,171)" stroke="rgb(171,171,171)" stroke-width="1.51"/><path d="M583,289L563,203L497,277Z" fill="rgb(192,192,192)" stroke="rgb(192,192,192)" stroke-width="1.51"/><path d="M575,345L583,289L497,277Z" fill="rgb(209,209,209)" stroke="rgb(209,209,209)" stroke-width="1.51"/><path d="M255,361L274,398L359,346Z" fill="rgb(173,173,173)" stroke="rgb(173,173,173)" stroke-width="1.51"/><path d="M193,406L274,398L255,361Z" fill="rgb(168,168,168)" stroke="rgb(168,168,168)" stroke-width="1.51"/><path d="M238,-3L190,-32L205,36Z" fill="rgb(43,43,43)" stroke="rgb(43,43,43)" stroke-width="1.51"/><path d="M260,-126L238,-3L340,-8Z" fill="rgb(55,55,55)" stroke="rgb(55,55,55)" stroke-width="1.51"/><path d="M414,-101L340,-8L430,-22Z" fill="rgb(77,77,77)" stroke="rgb(77,77,77)" stroke-width="1.51"/><path d="M490,-75L414,-101L430,-22Z" fill="rgb(87,87,87)" stroke="rgb(87,87,87)" stroke-width="1.51"/><path d="M556,73L535,-45L503,-20Z" fill="rgb(105,105,105)" stroke="rgb(105,105,105)" stroke-width="1.51"/><path d="M618,55L535,-45L556,73Z" fill="rgb(121,121,121)" stroke="rgb(121,121,121)" stroke-width="1.51"/><path d="M490,-75L430,-22L503,-20Z" fill="rgb(93,93,93)" stroke="rgb(93,93,93)" stroke-width="1.51"/><path d="M535,-45L490,-75L503,-20Z" fill="rgb(100,100,100)" stroke="rgb(100,100,100)" stroke-width="1.51"/><path d="M644,139L618,55L564,120Z" fill="rgb(153,153,153)" stroke="rgb(153,153,153)" stroke-width="1.51"/><path d="M468,360L575,345L497,277Z" fill="rgb(208,208,208)" stroke="rgb(208,208,208)" stroke-width="1.51"/><path d="M399,402L478,404L468,360Z" fill="rgb(215,215,215)" stroke="rgb(215,215,215)" stroke-width="1.51"/><path d="M615,195L644,139L564,120Z" fill="rgb(168,168,168)" stroke="rgb(168,168,168)" stroke-width="1.51"/><path d="M733,151L644,139L738,182Z" fill="rgb(170,170,170)" stroke="rgb(170,170,170)" stroke-width="1.51"/><path d="M182,252L159,359L255,361Z" fill="rgb(137,137,137)" stroke="rgb(137,137,137)" stroke-width="1.51"/><path d="M87,195L107,256L179,175Z" fill="rgb(86,86,86)" stroke="rgb(86,86,86)" stroke-width="1.51"/><path d="M583,289L655,290L615,195Z" fill="rgb(204,204,204)" stroke="rgb(204,204,204)" stroke-width="1.51"/><path d="M478,404L575,345L468,360Z" fill="rgb(222,222,222)" stroke="rgb(222,222,222)" stroke-width="1.51"/><path d="M135,101L87,195L179,175Z" fill="rgb(72,72,72)" stroke="rgb(72,72,72)" stroke-width="1.51"/><path d="M190,-32L112,35L205,36Z" fill="rgb(39,39,39)" stroke="rgb(39,39,39)" stroke-width="1.51"/><path d="M45,148L87,195L135,101Z" fill="rgb(61,61,61)" stroke="rgb(61,61,61)" stroke-width="1.51"/><path d="M586,-128L362,-128L414,-101Z" fill="rgb(89,89,89)" stroke="rgb(89,89,89)" stroke-width="1.51"/><path d="M414,-101L362,-128L340,-8Z" fill="rgb(73,73,73)" stroke="rgb(73,73,73)" stroke-width="1.51"/><path d="M274,398L318,439L359,346Z" fill="rgb(187,187,187)" stroke="rgb(187,187,187)" stroke-width="1.51"/><path d="M436,526L502,490L478,404Z" fill="rgb(225,225,225)" stroke="rgb(225,225,225)" stroke-width="1.51"/><path d="M310,494L318,439L260,518Z" fill="rgb(184,184,184)" stroke="rgb(184,184,184)" stroke-width="1.51"/><path d="M107,256L159,359L182,252Z" fill="rgb(115,115,115)" stroke="rgb(115,115,115)" stroke-width="1.51"/><path d="M190,-32L121,-43L112,35Z" fill="rgb(31,31,31)" stroke="rgb(31,31,31)" stroke-width="1.51"/><path d="M362,-128L260,-126L340,-8Z" fill="rgb(63,63,63)" stroke="rgb(63,63,63)" stroke-width="1.51"/><path d="M159,359L193,406L255,361Z" fill="rgb(154,154,154)" stroke="rgb(154,154,154)" stroke-width="1.51"/><path d="M639,366L655,290L583,289Z" fill="rgb(225,225,225)" stroke="rgb(225,225,225)" stroke-width="1.51"/><path d="M193,-111L121,-43L190,-32Z" fill="rgb(36,36,36)" stroke="rgb(36,36,36)" stroke-width="1.51"/><path d="M31,188L64,266L87,195Z" fill="rgb(76,76,76)" stroke="rgb(76,76,76)" stroke-width="1.51"/><path d="M260,-126L193,-111L190,-32Z" fill="rgb(44,44,44)" stroke="rgb(44,44,44)" stroke-width="1.51"/><path d="M618,55L622,-39L535,-45Z" fill="rgb(117,117,117)" stroke="rgb(117,117,117)" stroke-width="1.51"/><path d="M535,-45L586,-128L490,-75Z" fill="rgb(106,106,106)" stroke="rgb(106,106,106)" stroke-width="1.51"/><path d="M490,-75L586,-128L414,-101Z" fill="rgb(98,98,98)" stroke="rgb(98,98,98)" stroke-width="1.51"/><path d="M722,52L622,-39L618,55Z" fill="rgb(126,126,126)" stroke="rgb(126,126,126)" stroke-width="1.51"/><path d="M107,256L102,354L159,359Z" fill="rgb(120,120,120)" stroke="rgb(120,120,120)" stroke-width="1.51"/><path d="M159,359L123,399L193,406Z" fill="rgb(149,149,149)" stroke="rgb(149,149,149)" stroke-width="1.51"/><path d="M87,195L64,266L107,256Z" fill="rgb(87,87,87)" stroke="rgb(87,87,87)" stroke-width="1.51"/><path d="M45,148L135,101L57,67Z" fill="rgb(48,48,48)" stroke="rgb(48,48,48)" stroke-width="1.51"/><path d="M57,67L135,101L112,35Z" fill="rgb(42,42,42)" stroke="rgb(42,42,42)" stroke-width="1.51"/><path d="M19,-38L57,67L112,35Z" fill="rgb(23,23,23)" stroke="rgb(23,23,23)" stroke-width="1.51"/><path d="M64,266L102,354L107,256Z" fill="rgb(104,104,104)" stroke="rgb(104,104,104)" stroke-width="1.51"/><path d="M575,345L639,366L583,289Z" fill="rgb(231,231,231)" stroke="rgb(231,231,231)" stroke-width="1.51"/><path d="M478,404L590,411L575,345Z" fill="rgb(237,237,237)" stroke="rgb(237,237,237)" stroke-width="1.51"/><path d="M502,490L590,411L478,404Z" fill="rgb(236,236,236)" stroke="rgb(236,236,236)" stroke-width="1.51"/><path d="M-30,175L31,188L45,148Z" fill="rgb(54,54,54)" stroke="rgb(54,54,54)" stroke-width="1.51"/><path d="M45,148L31,188L87,195Z" fill="rgb(63,63,63)" stroke="rgb(63,63,63)" stroke-width="1.51"/><path d="M590,411L639,366L575,345Z" fill="rgb(245,245,245)" stroke="rgb(245,245,245)" stroke-width="1.51"/><path d="M318,439L436,526L399,402Z" fill="rgb(204,204,204)" stroke="rgb(204,204,204)" stroke-width="1.51"/><path d="M260,518L318,439L274,398Z" fill="rgb(181,181,181)" stroke="rgb(181,181,181)" stroke-width="1.51"/><path d="M260,518L274,398L189,497Z" fill="rgb(171,171,171)" stroke="rgb(171,171,171)" stroke-width="1.51"/><path d="M102,354L123,399L159,359Z" fill="rgb(137,137,137)" stroke="rgb(137,137,137)" stroke-width="1.51"/><path d="M622,-39L586,-128L535,-45Z" fill="rgb(115,115,115)" stroke="rgb(115,115,115)" stroke-width="1.51"/><path d="M436,526L478,404L399,402Z" fill="rgb(216,216,216)" stroke="rgb(216,216,216)" stroke-width="1.51"/><path d="M644,139L722,52L618,55Z" fill="rgb(145,145,145)" stroke="rgb(145,145,145)" stroke-width="1.51"/><path d="M622,-39L654,-89L586,-128Z" fill="rgb(119,119,119)" stroke="rgb(119,119,119)" stroke-width="1.51"/><path d="M738,182L644,139L615,195Z" fill="rgb(175,175,175)" stroke="rgb(175,175,175)" stroke-width="1.51"/><path d="M738,182L615,195L655,290Z" fill="rgb(192,192,192)" stroke="rgb(192,192,192)" stroke-width="1.51"/><path d="M728,324L710,291L655,290Z" fill="rgb(220,220,220)" stroke="rgb(220,220,220)" stroke-width="1.51"/><path d="M733,151L722,52L644,139Z" fill="rgb(156,156,156)" stroke="rgb(156,156,156)" stroke-width="1.51"/><path d="M733,151L730,-23L722,52Z" fill="rgb(138,138,138)" stroke="rgb(138,138,138)" stroke-width="1.51"/><path d="M710,291L738,182L655,290Z" fill="rgb(203,203,203)" stroke="rgb(203,203,203)" stroke-width="1.51"/><path d="M310,494L436,526L318,439Z" fill="rgb(197,197,197)" stroke="rgb(197,197,197)" stroke-width="1.51"/><path d="M730,-23L654,-89L622,-39Z" fill="rgb(119,119,119)" stroke="rgb(119,119,119)" stroke-width="1.51"/><path d="M310,494L260,518L436,526Z" fill="rgb(193,193,193)" stroke="rgb(193,193,193)" stroke-width="1.51"/><path d="M189,497L274,398L193,406Z" fill="rgb(166,166,166)" stroke="rgb(166,166,166)" stroke-width="1.51"/><path d="M121,-43L19,-38L112,35Z" fill="rgb(22,22,22)" stroke="rgb(22,22,22)" stroke-width="1.51"/><path d="M193,-111L94,-104L121,-43Z" fill="rgb(30,30,30)" stroke="rgb(30,30,30)" stroke-width="1.51"/><path d="M260,-126L94,-104L193,-111Z" fill="rgb(38,38,38)" stroke="rgb(38,38,38)" stroke-width="1.51"/><path d="M126,489L189,497L193,406Z" fill="rgb(156,156,156)" stroke="rgb(156,156,156)" stroke-width="1.51"/><path d="M586,513L590,411L502,490Z" fill="rgb(245,245,245)" stroke="rgb(245,245,245)" stroke-width="1.51"/><path d="M586,513L624,445L590,411Z" fill="rgb(255,255,255)" stroke="rgb(255,255,255)" stroke-width="1.51"/><path d="M590,411L624,445L639,366Z" fill="rgb(255,255,255)" stroke="rgb(255,255,255)" stroke-width="1.51"/><path d="M639,366L728,324L655,290Z" fill="rgb(229,229,229)" stroke="rgb(229,229,229)" stroke-width="1.51"/><path d="M714,405L728,324L639,366Z" fill="rgb(242,242,242)" stroke="rgb(242,242,242)" stroke-width="1.51"/><path d="M710,291L728,324L738,182Z" fill="rgb(207,207,207)" stroke="rgb(207,207,207)" stroke-width="1.51"/><path d="M31,188L-18,271L64,266Z" fill="rgb(76,76,76)" stroke="rgb(76,76,76)" stroke-width="1.51"/><path d="M64,266L32,372L102,354Z" fill="rgb(111,111,111)" stroke="rgb(111,111,111)" stroke-width="1.51"/><path d="M102,354L48,407L123,399Z" fill="rgb(134,134,134)" stroke="rgb(134,134,134)" stroke-width="1.51"/><path d="M123,399L126,489L193,406Z" fill="rgb(150,150,150)" stroke="rgb(150,150,150)" stroke-width="1.51"/><path d="M-60,132L-30,175L45,148Z" fill="rgb(46,46,46)" stroke="rgb(46,46,46)" stroke-width="1.51"/><path d="M-60,132L45,148L57,67Z" fill="rgb(39,39,39)" stroke="rgb(39,39,39)" stroke-width="1.51"/><path d="M-25,324L32,372L64,266Z" fill="rgb(99,99,99)" stroke="rgb(99,99,99)" stroke-width="1.51"/><path d="M31,-84L19,-38L121,-43Z" fill="rgb(16,16,16)" stroke="rgb(16,16,16)" stroke-width="1.51"/><path d="M-30,175L-18,271L31,188Z" fill="rgb(62,62,62)" stroke="rgb(62,62,62)" stroke-width="1.51"/><path d="M722,52L730,-23L622,-39Z" fill="rgb(119,119,119)" stroke="rgb(119,119,119)" stroke-width="1.51"/><path d="M738,182L730,-23L733,151Z" fill="rgb(152,152,152)" stroke="rgb(152,152,152)" stroke-width="1.51"/><path d="M32,372L48,407L102,354Z" fill="rgb(125,125,125)" stroke="rgb(125,125,125)" stroke-width="1.51"/><path d="M-26,428L48,407L32,372Z" fill="rgb(123,123,123)" stroke="rgb(123,123,123)" stroke-width="1.51"/><path d="M48,407L126,489L123,399Z" fill="rgb(140,140,140)" stroke="rgb(140,140,140)" stroke-width="1.51"/><path d="M189,497L-33,526L260,518Z" fill="rgb(149,149,149)" stroke="rgb(149,149,149)" stroke-width="1.51"/><path d="M94,-104L31,-84L121,-43Z" fill="rgb(21,21,21)" stroke="rgb(21,21,21)" stroke-width="1.51"/><path d="M436,526L586,513L502,490Z" fill="rgb(233,233,233)" stroke="rgb(233,233,233)" stroke-width="1.51"/><path d="M624,445L714,405L639,366Z" fill="rgb(255,255,255)" stroke="rgb(255,255,255)" stroke-width="1.51"/><path d="M586,513L644,472L624,445Z" fill="rgb(255,255,255)" stroke="rgb(255,255,255)" stroke-width="1.51"/><path d="M644,472L714,405L624,445Z" fill="rgb(255,255,255)" stroke="rgb(255,255,255)" stroke-width="1.51"/><path d="M-18,271L-25,324L64,266Z" fill="rgb(86,86,86)" stroke="rgb(86,86,86)" stroke-width="1.51"/><path d="M-118,253L-25,324L-18,271Z" fill="rgb(83,83,83)" stroke="rgb(83,83,83)" stroke-width="1.51"/><path d="M-52,38L-60,132L57,67Z" fill="rgb(27,27,27)" stroke="rgb(27,27,27)" stroke-width="1.51"/><path d="M-30,175L-89,188L-18,271Z" fill="rgb(62,62,62)" stroke="rgb(62,62,62)" stroke-width="1.51"/><path d="M-52,38L57,67L19,-38Z" fill="rgb(12,12,12)" stroke="rgb(12,12,12)" stroke-width="1.51"/><path d="M-29,-30L-52,38L19,-38Z" fill="rgb(0,0,0)" stroke="rgb(0,0,0)" stroke-width="1.51"/><path d="M31,-84L-29,-30L19,-38Z" fill="rgb(2,2,2)" stroke="rgb(2,2,2)" stroke-width="1.51"/><path d="M730,-23L738,-81L654,-89Z" fill="rgb(119,119,119)" stroke="rgb(119,119,119)" stroke-width="1.51"/><path d="M654,-89L738,-81L586,-128Z" fill="rgb(119,119,119)" stroke="rgb(119,119,119)" stroke-width="1.51"/><path d="M738,182L738,-81L730,-23Z" fill="rgb(127,127,127)" stroke="rgb(127,127,127)" stroke-width="1.51"/><path d="M-91,128L-89,188L-60,132Z" fill="rgb(45,45,45)" stroke="rgb(45,45,45)" stroke-width="1.51"/><path d="M-60,132L-89,188L-30,175Z" fill="rgb(50,50,50)" stroke="rgb(50,50,50)" stroke-width="1.51"/><path d="M-52,38L-91,128L-60,132Z" fill="rgb(32,32,32)" stroke="rgb(32,32,32)" stroke-width="1.51"/><path d="M-128,41L-91,128L-52,38Z" fill="rgb(25,25,25)" stroke="rgb(25,25,25)" stroke-width="1.51"/><path d="M48,407L17,489L126,489Z" fill="rgb(133,133,133)" stroke="rgb(133,133,133)" stroke-width="1.51"/><path d="M-25,324L-26,428L32,372Z" fill="rgb(111,111,111)" stroke="rgb(111,111,111)" stroke-width="1.51"/><path d="M-92,406L-26,428L-25,324Z" fill="rgb(115,115,115)" stroke="rgb(115,115,115)" stroke-width="1.51"/><path d="M-26,428L17,489L48,407Z" fill="rgb(122,122,122)" stroke="rgb(122,122,122)" stroke-width="1.51"/><path d="M126,489L-33,526L189,497Z" fill="rgb(139,139,139)" stroke="rgb(139,139,139)" stroke-width="1.51"/><path d="M644,472L707,502L714,405Z" fill="rgb(255,255,255)" stroke="rgb(255,255,255)" stroke-width="1.51"/><path d="M714,405L707,502L728,324Z" fill="rgb(255,255,255)" stroke="rgb(255,255,255)" stroke-width="1.51"/><path d="M586,513L707,502L644,472Z" fill="rgb(255,255,255)" stroke="rgb(255,255,255)" stroke-width="1.51"/><path d="M31,-84L-44,-103L-29,-30Z" fill="rgb(0,0,0)" stroke="rgb(0,0,0)" stroke-width="1.51"/><path d="M-129,-11L-128,41L-52,38Z" fill="rgb(10,10,10)" stroke="rgb(10,10,10)" stroke-width="1.51"/><path d="M94,-104L-44,-103L31,-84Z" fill="rgb(9,9,9)" stroke="rgb(9,9,9)" stroke-width="1.51"/><path d="M260,-126L-44,-103L94,-104Z" fill="rgb(25,25,25)" stroke="rgb(25,25,25)" stroke-width="1.51"/><path d="M-89,188L-118,253L-18,271Z" fill="rgb(70,70,70)" stroke="rgb(70,70,70)" stroke-width="1.51"/><path d="M-91,128L-118,253L-89,188Z" fill="rgb(56,56,56)" stroke="rgb(56,56,56)" stroke-width="1.51"/><path d="M-128,41L-118,253L-91,128Z" fill="rgb(43,43,43)" stroke="rgb(43,43,43)" stroke-width="1.51"/><path d="M-118,253L-99,347L-25,324Z" fill="rgb(91,91,91)" stroke="rgb(91,91,91)" stroke-width="1.51"/><path d="M-26,428L-33,526L17,489Z" fill="rgb(119,119,119)" stroke="rgb(119,119,119)" stroke-width="1.51"/><path d="M-129,-11L-52,38L-29,-30Z" fill="rgb(0,0,0)" stroke="rgb(0,0,0)" stroke-width="1.51"/><path d="M-128,500L-92,406L-99,347Z" fill="rgb(119,119,119)" stroke="rgb(119,119,119)" stroke-width="1.51"/><path d="M-99,347L-92,406L-25,324Z" fill="rgb(106,106,106)" stroke="rgb(106,106,106)" stroke-width="1.51"/><path d="M-104,-94L-129,-11L-29,-30Z" fill="rgb(0,0,0)" stroke="rgb(0,0,0)" stroke-width="1.51"/><path d="M-44,-103L-104,-94L-29,-30Z" fill="rgb(0,0,0)" stroke="rgb(0,0,0)" stroke-width="1.51"/><path d="M-128,500L-33,526L-26,428Z" fill="rgb(119,119,119)" stroke="rgb(119,119,119)" stroke-width="1.51"/><path d="M17,489L-33,526L126,489Z" fill="rgb(127,127,127)" stroke="rgb(127,127,127)" stroke-width="1.51"/><path d="M260,518L-33,526L436,526Z" fill="rgb(167,167,167)" stroke="rgb(167,167,167)" stroke-width="1.51"/><path d="M-129,-11L-128,500L-128,41Z" fill="rgb(53,53,53)" stroke="rgb(53,53,53)" stroke-width="1.51"/><path d="M-128,41L-128,500L-118,253Z" fill="rgb(78,78,78)" stroke="rgb(78,78,78)" stroke-width="1.51"/><path d="M-118,253L-128,500L-99,347Z" fill="rgb(108,108,108)" stroke="rgb(108,108,108)" stroke-width="1.51"/><path d="M-92,406L-128,500L-26,428Z" fill="rgb(119,119,119)" stroke="rgb(119,119,119)" stroke-width="1.51"/></svg>